<svg xmlns="http://www.w3.org/2000/svg" viewBox="226 457 1597 1132">
<defs><linearGradient id="g" x1="0" y1="0" x2="1" y2="1">
<stop offset="0" stop-color="#2FE6F3"/>
<stop offset="0.42" stop-color="#34C4EE"/>
<stop offset="1" stop-color="#8B45F0"/>
</linearGradient><filter id="glow" x="-30%" y="-30%" width="160%" height="160%">
<feGaussianBlur stdDeviation="9" result="b"/>
<feMerge><feMergeNode in="b"/><feMergeNode in="b"/><feMergeNode in="SourceGraphic"/></feMerge>
</filter></defs>
<g filter="url(#glow)"><path d="M465.57 1552.48 C460.81 1550.66 458.5 1548.69 455.37 1543.77 C452.38 1539.06 452.07 1529.49 454.75 1524.65 C456.45 1521.59 482.39 1488.66 494.26 1474.5 C512.21 1453.09 534.72 1425.31 547.75 1408.5 C557.85 1395.48 585.01 1362.09 594.05 1351.59 C599.31 1345.49 612.98 1328.84 624.43 1314.58 C635.89 1300.33 646.44 1287.55 647.88 1286.19 C660.99 1273.83 681.96 1282.33 681.96 1300.0 C681.96 1306.05 679.47 1310.97 671.61 1320.5 C667.98 1324.9 661.85 1332.33 657.98 1337.0 C654.12 1341.67 640.42 1358.55 627.54 1374.5 C614.66 1390.45 594.84 1414.75 583.5 1428.5 C565.09 1450.82 548.97 1470.8 523.28 1503.15 C513.32 1515.69 495.47 1537.54 489.25 1544.8 C486.76 1547.71 483.4 1550.77 481.8 1551.6 C477.51 1553.82 470.14 1554.22 465.57 1552.48 Z M1419.31 1551.9 C1417.26 1551.3 1413.82 1548.39 1409.69 1543.74 C1391.01 1522.69 1373.88 1503.03 1369.0 1497.03 C1361.54 1487.85 1346.27 1469.88 1329.98 1451.09 C1322.54 1442.52 1311.12 1429.2 1304.61 1421.5 C1298.09 1413.8 1289.5 1403.9 1285.52 1399.5 C1281.53 1395.1 1276.98 1389.92 1275.39 1388.0 C1273.81 1386.08 1269.2 1380.67 1265.14 1376.0 C1254.27 1363.47 1252.02 1359.1 1252.01 1350.45 C1252.0 1344.45 1252.41 1342.77 1254.74 1339.17 C1258.08 1334.02 1263.85 1331.0 1270.35 1331.0 C1280.42 1331.0 1283.69 1333.71 1306.03 1360.5 C1315.2 1371.5 1327.77 1386.35 1333.97 1393.5 C1340.16 1400.65 1354.27 1417.3 1365.32 1430.5 C1376.36 1443.7 1389.7 1459.49 1394.95 1465.58 C1443.9 1522.4 1445.49 1524.61 1445.3 1535.1 C1445.05 1547.87 1432.79 1555.8 1419.31 1551.9 Z M275.92 1547.06 C266.95 1541.1 261.96 1533.94 262.02 1527.1 C262.05 1523.48 265.2 1517.07 268.69 1513.5 C270.31 1511.85 278.33 1502.17 286.52 1492.0 C294.7 1481.83 305.51 1468.78 310.53 1463.0 C315.54 1457.22 329.02 1440.8 340.47 1426.5 C351.93 1412.2 362.69 1398.88 364.4 1396.91 C366.1 1394.94 370.23 1389.99 373.56 1385.91 C376.9 1381.83 388.4 1367.92 399.13 1355.0 C409.86 1342.08 424.43 1324.3 431.5 1315.5 C438.58 1306.7 447.57 1295.67 451.49 1291.0 C464.68 1275.27 486.57 1248.63 501.09 1230.65 C509.01 1220.83 518.88 1208.64 523.0 1203.58 C527.12 1198.51 537.55 1185.59 546.17 1174.87 C563.13 1153.78 561.52 1155.08 577.5 1149.53 C614.62 1136.63 625.52 1133.12 626.23 1133.83 C626.69 1134.29 624.1 1138.45 620.48 1143.08 C616.86 1147.71 611.79 1154.2 609.22 1157.5 C604.81 1163.15 586.81 1185.16 571.73 1203.34 C568.0 1207.83 562.84 1214.2 560.25 1217.5 C554.76 1224.51 537.94 1244.83 527.56 1257.0 C523.57 1261.67 510.14 1278.1 497.72 1293.5 C485.3 1308.9 471.17 1326.19 466.32 1331.92 C453.92 1346.58 447.87 1353.9 428.55 1377.66 C419.22 1389.12 407.94 1402.78 403.48 1408.0 C387.62 1426.55 349.45 1472.31 346.0 1476.89 C342.86 1481.06 334.44 1491.14 310.39 1519.5 C295.07 1537.56 283.46 1549.99 281.92 1550.0 C281.05 1550.0 278.35 1548.68 275.92 1547.06 Z M1633.32 1547.25 C1631.47 1544.32 1598.87 1505.22 1584.26 1488.42 C1579.44 1482.88 1568.08 1469.65 1559.0 1459.04 C1504.08 1394.79 1476.42 1362.58 1471.42 1357.03 C1467.03 1352.16 1444.71 1325.66 1436.5 1315.56 C1433.75 1312.18 1427.45 1304.77 1422.5 1299.09 C1402.28 1275.92 1396.31 1269.0 1387.46 1258.5 C1382.36 1252.45 1374.66 1243.42 1370.35 1238.43 C1351.48 1216.63 1344.6 1208.58 1332.4 1194.0 C1325.27 1185.47 1315.65 1173.78 1311.03 1168.0 C1306.42 1162.22 1299.44 1153.9 1295.54 1149.5 C1291.63 1145.1 1285.31 1137.67 1281.49 1133.0 C1277.66 1128.33 1274.28 1124.28 1273.96 1124.0 C1273.64 1123.72 1267.9 1116.75 1261.21 1108.5 C1254.51 1100.25 1247.6 1091.81 1245.84 1089.75 C1244.09 1087.69 1243.0 1085.67 1243.41 1085.25 C1243.83 1084.84 1300.27 1084.24 1368.83 1083.93 C1488.76 1083.38 1494.09 1083.28 1509.0 1081.23 C1530.83 1078.24 1544.01 1075.01 1570.59 1066.15 C1608.55 1053.5 1640.48 1033.59 1669.45 1004.5 C1697.51 976.31 1710.45 957.93 1724.7 926.0 C1743.49 883.9 1750.0 853.3 1750.12 806.5 C1750.23 767.44 1745.04 738.33 1731.96 704.5 C1730.25 700.1 1728.51 695.38 1728.07 694.0 C1725.85 686.99 1711.73 660.94 1703.68 649.0 C1692.62 632.59 1662.89 601.05 1646.0 587.82 C1629.18 574.64 1618.11 567.65 1600.5 559.07 C1568.69 543.58 1535.77 534.25 1499.72 530.52 C1486.68 529.17 1431.22 528.99 1028.22 528.98 C777.02 528.97 571.02 528.64 570.44 528.23 C569.86 527.83 565.66 522.1 561.11 515.5 C556.56 508.9 551.3 501.55 549.41 499.16 C547.53 496.78 546.24 494.42 546.55 493.91 C546.89 493.36 735.8 493.0 1021.1 493.0 C1539.21 493.0 1507.32 492.65 1534.96 498.62 C1550.25 501.91 1574.78 508.34 1583.5 511.33 C1601.9 517.63 1630.79 532.56 1653.57 547.53 C1677.41 563.2 1700.73 584.5 1718.11 606.5 C1729.77 621.27 1732.7 625.43 1741.68 640.0 C1750.71 654.66 1753.95 660.79 1760.13 675.0 C1762.88 681.33 1765.54 687.4 1766.04 688.5 C1766.54 689.6 1767.65 692.52 1768.51 695.0 C1785.61 744.34 1791.27 799.02 1784.49 849.5 C1780.41 879.95 1775.4 898.98 1763.45 929.5 C1749.64 964.73 1724.72 1002.46 1698.35 1028.06 C1661.45 1063.86 1625.12 1086.61 1582.0 1100.93 C1556.0 1109.56 1535.48 1114.03 1510.5 1116.51 C1502.25 1117.32 1493.47 1118.29 1491.0 1118.65 C1488.53 1119.01 1449.64 1119.58 1404.58 1119.9 C1343.11 1120.35 1322.57 1120.79 1322.27 1121.68 C1322.06 1122.32 1324.95 1126.37 1328.71 1130.68 C1332.46 1134.98 1338.68 1142.33 1342.52 1147.0 C1346.35 1151.67 1354.17 1160.9 1359.88 1167.5 C1365.6 1174.1 1377.79 1188.5 1386.99 1199.5 C1413.82 1231.59 1420.52 1239.54 1435.47 1257.0 C1443.23 1266.08 1453.92 1278.67 1459.21 1285.0 C1464.51 1291.33 1475.67 1304.38 1484.02 1314.0 C1492.37 1323.62 1508.05 1342.0 1518.85 1354.83 C1529.66 1367.66 1540.53 1380.54 1543.0 1383.45 C1548.2 1389.57 1572.07 1417.81 1589.5 1438.47 C1596.1 1446.29 1605.83 1457.82 1611.13 1464.09 C1616.43 1470.37 1623.6 1478.88 1627.07 1483.0 C1630.54 1487.12 1636.37 1493.88 1640.02 1498.0 C1657.47 1517.72 1660.74 1525.36 1656.12 1535.54 C1654.0 1540.21 1649.73 1544.09 1642.89 1547.56 C1636.75 1550.67 1635.44 1550.63 1633.32 1547.25 Z M359.32 1543.4 C359.06 1542.7 361.24 1539.26 364.17 1535.75 C367.1 1532.24 372.88 1525.14 377.0 1519.99 C381.12 1514.83 386.11 1508.79 388.08 1506.56 C390.05 1504.33 401.83 1489.9 414.26 1474.5 C441.69 1440.52 453.24 1426.36 467.0 1409.86 C472.77 1402.93 492.23 1378.86 510.24 1356.38 C528.25 1333.9 548.05 1309.36 554.24 1301.87 C563.8 1290.29 579.97 1270.09 635.38 1200.5 C639.76 1195.0 649.31 1183.3 656.61 1174.5 C667.71 1161.11 683.06 1141.99 708.27 1110.15 C710.6 1107.21 718.12 1097.94 725.0 1089.54 C731.88 1081.14 743.12 1067.15 750.0 1058.44 C770.65 1032.28 794.57 1010.2 821.81 992.16 C828.58 987.67 834.27 984.0 834.45 984.0 C834.63 984.0 839.21 981.95 844.64 979.45 C857.85 973.34 857.58 973.46 865.0 970.59 C874.78 966.82 888.82 962.38 895.0 961.11 C915.83 956.84 923.07 955.98 942.3 955.5 C953.41 955.22 1073.88 954.78 1210.0 954.52 C1458.13 954.04 1475.68 953.78 1492.0 950.42 C1510.67 946.57 1532.59 937.34 1549.21 926.34 C1556.98 921.2 1572.34 907.76 1579.28 900.03 C1599.64 877.38 1611.37 847.31 1612.64 814.5 C1613.68 787.71 1610.21 765.87 1602.0 747.5 C1593.73 729.0 1591.21 724.82 1580.0 711.03 C1568.32 696.66 1560.05 689.54 1542.0 678.34 C1520.91 665.25 1504.24 659.16 1478.92 655.29 C1468.24 653.65 1441.76 653.5 1069.5 653.01 C850.6 652.72 671.4 652.37 671.29 652.24 C671.17 652.11 667.25 646.94 662.58 640.75 C657.91 634.56 652.19 627.12 649.88 624.21 C647.36 621.05 646.04 618.57 646.59 618.03 C647.12 617.51 819.35 617.06 1060.0 616.95 L1472.5 616.76 L1484.82 618.85 C1497.59 621.02 1502.32 622.2 1517.5 627.04 C1547.91 636.74 1572.45 650.81 1592.37 669.97 C1623.72 700.11 1643.33 738.11 1648.64 779.0 C1651.39 800.2 1650.34 826.39 1645.91 847.0 C1639.67 876.06 1629.55 896.88 1609.44 922.0 C1593.32 942.14 1575.41 956.36 1551.4 968.07 C1530.69 978.18 1511.07 984.29 1488.93 987.54 C1467.93 990.62 1438.79 990.98 1206.5 991.04 C1077.8 991.07 961.02 991.49 947.0 991.99 C911.02 993.25 900.2 995.45 872.93 1007.06 C858.12 1013.36 843.84 1021.22 831.74 1029.7 C824.55 1034.75 800.56 1055.96 799.82 1057.92 C799.65 1058.4 795.94 1062.54 791.59 1067.12 C784.63 1074.45 762.72 1101.24 754.46 1112.5 C752.85 1114.7 745.67 1123.65 738.51 1132.39 C718.54 1156.78 691.53 1190.44 683.46 1201.0 C674.31 1212.98 664.94 1224.55 648.68 1243.97 C641.63 1252.39 634.15 1261.58 632.05 1264.39 C629.96 1267.2 624.93 1273.59 620.88 1278.59 C601.53 1302.44 580.83 1328.27 575.26 1335.5 C571.88 1339.9 566.49 1346.69 563.3 1350.58 C528.75 1392.75 519.02 1404.74 484.5 1447.65 C471.3 1464.06 457.31 1481.09 453.42 1485.49 C439.58 1501.14 430.77 1511.62 424.01 1520.5 C420.24 1525.45 414.08 1532.78 410.33 1536.79 L403.5 1544.09 L381.66 1544.38 C364.69 1544.61 359.7 1544.39 359.32 1543.4 Z M529.16 1543.69 C528.14 1542.47 528.63 1541.39 531.96 1537.55 C534.17 1534.99 546.07 1520.43 558.39 1505.2 C570.72 1489.96 585.2 1472.1 590.58 1465.5 C595.96 1458.9 604.75 1448.1 610.11 1441.5 C615.48 1434.9 629.8 1417.35 641.94 1402.5 C654.08 1387.65 673.99 1363.12 686.19 1348.0 C698.39 1332.88 713.39 1314.65 719.53 1307.5 C725.66 1300.35 734.24 1289.96 738.59 1284.41 C742.94 1278.87 751.45 1268.37 757.5 1261.09 C776.38 1238.38 789.48 1222.34 809.44 1197.5 C838.57 1161.24 848.39 1152.34 872.5 1140.39 C895.31 1129.07 910.48 1125.57 935.85 1125.76 C963.06 1125.96 981.64 1130.54 1006.5 1143.18 C1026.68 1153.45 1035.96 1161.12 1053.28 1181.85 C1060.0 1189.9 1071.35 1203.24 1078.51 1211.49 C1085.66 1219.75 1095.1 1230.78 1099.47 1236.0 C1117.67 1257.75 1124.56 1265.86 1130.37 1272.39 C1139.04 1282.14 1138.34 1281.34 1151.14 1296.09 C1162.07 1308.68 1167.39 1314.95 1191.0 1343.07 C1196.22 1349.3 1205.68 1360.26 1212.02 1367.44 C1218.35 1374.62 1229.15 1387.23 1236.02 1395.47 C1247.9 1409.71 1254.52 1417.49 1288.03 1456.56 C1296.03 1465.88 1306.59 1478.45 1311.51 1484.5 C1316.44 1490.55 1327.0 1503.1 1334.98 1512.39 C1357.51 1538.61 1360.48 1542.42 1359.53 1543.96 C1358.81 1545.12 1317.62 1545.33 1314.89 1544.18 C1314.0 1543.81 1307.25 1536.28 1299.89 1527.46 C1282.45 1506.56 1278.04 1501.39 1268.94 1491.07 C1264.78 1486.36 1256.48 1476.65 1250.51 1469.5 C1244.53 1462.35 1236.23 1452.65 1232.07 1447.94 C1219.85 1434.12 1194.05 1404.35 1184.45 1393.0 C1179.57 1387.22 1166.33 1371.75 1155.04 1358.6 C1143.74 1345.46 1133.16 1333.09 1131.52 1331.1 C1129.04 1328.12 1098.52 1292.53 1061.64 1249.64 C1057.32 1244.61 1049.61 1235.55 1044.51 1229.5 C1039.41 1223.45 1030.88 1213.33 1025.54 1207.0 C1010.75 1189.46 1000.19 1180.64 984.5 1172.75 C968.61 1164.76 956.57 1162.05 936.69 1162.02 C916.6 1161.99 903.2 1165.05 888.08 1173.14 C871.01 1182.26 865.46 1188.13 813.0 1252.5 C801.79 1266.25 788.08 1282.9 782.52 1289.5 C776.96 1296.1 765.19 1310.5 756.37 1321.5 C741.92 1339.51 729.81 1354.2 717.65 1368.5 C715.32 1371.25 704.9 1384.08 694.51 1397.0 C684.12 1409.92 672.4 1424.33 668.47 1429.0 C649.79 1451.24 600.44 1510.62 591.69 1521.38 C586.29 1528.02 579.66 1535.83 576.96 1538.73 L572.06 1544.0 L554.15 1544.0 C544.31 1544.0 534.93 1544.26 533.32 1544.59 C531.36 1544.98 529.98 1544.68 529.16 1543.69 Z M1498.14 1543.38 C1497.24 1542.75 1492.67 1537.62 1488.0 1531.98 C1483.32 1526.34 1475.79 1517.4 1471.25 1512.12 C1466.71 1506.83 1457.49 1495.98 1450.75 1488.01 C1444.01 1480.04 1434.22 1468.52 1429.0 1462.43 C1423.78 1456.33 1415.0 1445.99 1409.5 1439.46 C1404.0 1432.93 1395.45 1422.88 1390.5 1417.13 C1385.55 1411.38 1375.27 1399.21 1367.65 1390.09 C1360.03 1380.96 1346.98 1365.46 1338.65 1355.64 C1330.32 1345.82 1319.32 1332.77 1314.21 1326.64 C1303.29 1313.54 1272.43 1277.09 1262.71 1265.83 C1258.98 1261.5 1246.64 1246.83 1235.3 1233.23 C1204.22 1195.98 1197.2 1188.14 1177.02 1168.13 C1150.63 1141.97 1142.8 1135.32 1105.31 1107.24 C1098.97 1102.49 1077.26 1090.3 1071.88 1088.47 C1069.33 1087.61 1066.18 1085.73 1064.88 1084.31 L1062.5 1081.72 L1070.69 1082.38 C1075.19 1082.74 1084.56 1083.47 1091.51 1084.0 C1121.99 1086.33 1144.45 1093.53 1165.22 1107.63 C1175.35 1114.52 1176.59 1115.6 1201.43 1139.4 C1220.33 1157.51 1226.67 1164.48 1257.5 1201.01 C1264.65 1209.48 1277.05 1224.08 1285.06 1233.46 C1293.07 1242.83 1301.81 1253.2 1304.48 1256.5 C1311.29 1264.91 1330.5 1287.32 1336.59 1293.95 C1341.41 1299.2 1347.17 1306.02 1367.0 1329.95 C1384.86 1351.5 1404.77 1375.19 1411.5 1382.91 C1415.24 1387.21 1428.72 1403.55 1435.5 1412.0 C1437.15 1414.06 1445.7 1424.19 1454.5 1434.52 C1474.94 1458.51 1486.48 1472.26 1496.5 1484.59 C1500.9 1490.0 1508.1 1498.52 1512.5 1503.53 C1519.02 1510.94 1531.61 1526.02 1543.37 1540.5 C1544.4 1541.76 1544.93 1543.3 1544.56 1543.91 C1543.6 1545.46 1500.41 1544.97 1498.14 1543.38 Z M1210.63 930.3 C1209.69 929.36 1212.07 926.77 1221.97 917.95 C1227.19 913.3 1235.84 905.36 1241.21 900.29 L1250.97 891.08 L1350.73 890.72 C1463.17 890.31 1459.29 890.55 1474.82 882.82 C1481.66 879.42 1485.31 876.7 1492.07 870.0 C1505.56 856.61 1511.35 842.97 1511.39 824.5 C1511.43 808.01 1505.37 793.22 1493.07 779.81 C1482.56 768.35 1469.89 761.48 1454.5 758.89 C1449.24 758.01 1383.7 757.75 1191.5 757.84 C1018.74 757.92 933.82 757.62 930.32 756.92 C927.48 756.35 923.36 754.6 921.18 753.02 C911.16 745.76 912.01 729.21 922.8 721.59 C926.54 718.94 928.03 718.59 938.71 717.81 C945.2 717.33 1063.9 717.11 1202.5 717.32 C1473.87 717.74 1461.81 717.5 1477.44 722.62 C1492.03 727.4 1509.8 738.8 1522.4 751.48 C1535.64 764.79 1543.81 779.4 1549.22 799.39 C1551.1 806.33 1551.42 810.09 1551.41 825.5 L1551.41 843.5 L1547.32 855.5 C1533.34 896.5 1505.28 921.12 1464.5 928.16 C1454.21 929.93 1445.7 930.08 1332.35 930.46 C1265.71 930.68 1210.94 930.61 1210.63 930.3 Z M555.42 756.59 C545.74 753.55 540.47 745.94 541.19 736.01 C541.68 729.25 544.66 724.57 551.26 720.21 L555.36 717.5 L593.93 717.5 C615.14 717.5 645.53 717.73 661.45 718.0 L690.4 718.5 L698.46 729.18 C702.9 735.06 709.56 743.3 713.27 747.49 C716.97 751.69 720.0 755.76 720.0 756.55 C720.0 757.77 708.54 757.96 639.75 757.92 C577.5 757.88 558.59 757.58 555.42 756.59 Z M769.27 756.47 C768.14 755.68 761.66 747.79 754.86 738.94 C739.91 719.46 739.61 719.05 740.13 718.53 C740.83 717.84 860.46 716.65 863.11 717.31 C865.56 717.93 865.58 718.04 865.57 729.22 C865.57 738.59 865.95 741.52 867.86 746.5 C869.12 749.8 870.39 753.72 870.68 755.21 L871.21 757.92 L821.26 757.91 C779.51 757.91 770.98 757.67 769.27 756.47 Z M472.8 652.24 L434.1 651.98 L429.36 645.74 C426.75 642.31 420.88 634.89 416.31 629.25 C411.74 623.61 408.0 618.55 408.0 618.0 C408.0 617.45 408.79 617.02 409.75 617.05 C410.71 617.08 453.46 616.93 504.74 616.71 C585.2 616.36 598.27 616.5 600.07 617.76 C601.98 619.1 620.57 643.02 623.97 648.51 C624.78 649.82 625.18 651.16 624.84 651.49 C624.16 652.17 531.09 652.63 472.8 652.24 Z" fill="url(#g)"/></g>
</svg>